<svg xmlns="http://www.w3.org/2000/svg" viewBox="0 0 900 64" width="900" height="64" role="img" aria-label="入队 · JOIN THE PARTY">
<rect x="0" y="6" width="6" height="52" rx="3" fill="#6171F0"/>
<text x="26" y="34" font-family="'Noto Sans SC','PingFang SC','Hiragino Sans GB','Microsoft YaHei','Source Han Sans SC',sans-serif" font-size="34" font-weight="700" fill="#E7ECF6">入队</text>
<path d="M30.8 44h2.4v2.4h-2.4zM33.2 44h2.4v2.4h-2.4zM35.6 44h2.4v2.4h-2.4zM33.2 46.4h2.4v2.4h-2.4zM33.2 48.8h2.4v2.4h-2.4zM33.2 51.2h2.4v2.4h-2.4zM33.2 53.6h2.4v2.4h-2.4zM26 56h2.4v2.4h-2.4zM33.2 56h2.4v2.4h-2.4zM28.4 58.4h2.4v2.4h-2.4zM30.8 58.4h2.4v2.4h-2.4zM42.8 44h2.4v2.4h-2.4zM45.199999999999996 44h2.4v2.4h-2.4zM47.599999999999994 44h2.4v2.4h-2.4zM40.4 46.4h2.4v2.4h-2.4zM50 46.4h2.4v2.4h-2.4zM40.4 48.8h2.4v2.4h-2.4zM50 48.8h2.4v2.4h-2.4zM40.4 51.2h2.4v2.4h-2.4zM50 51.2h2.4v2.4h-2.4zM40.4 53.6h2.4v2.4h-2.4zM50 53.6h2.4v2.4h-2.4zM40.4 56h2.4v2.4h-2.4zM50 56h2.4v2.4h-2.4zM42.8 58.4h2.4v2.4h-2.4zM45.199999999999996 58.4h2.4v2.4h-2.4zM47.599999999999994 58.4h2.4v2.4h-2.4zM54.8 44h2.4v2.4h-2.4zM57.199999999999996 44h2.4v2.4h-2.4zM59.599999999999994 44h2.4v2.4h-2.4zM62 44h2.4v2.4h-2.4zM64.39999999999999 44h2.4v2.4h-2.4zM59.599999999999994 46.4h2.4v2.4h-2.4zM59.599999999999994 48.8h2.4v2.4h-2.4zM59.599999999999994 51.2h2.4v2.4h-2.4zM59.599999999999994 53.6h2.4v2.4h-2.4zM59.599999999999994 56h2.4v2.4h-2.4zM54.8 58.4h2.4v2.4h-2.4zM57.199999999999996 58.4h2.4v2.4h-2.4zM59.599999999999994 58.4h2.4v2.4h-2.4zM62 58.4h2.4v2.4h-2.4zM64.39999999999999 58.4h2.4v2.4h-2.4zM69.19999999999999 44h2.4v2.4h-2.4zM78.79999999999998 44h2.4v2.4h-2.4zM69.19999999999999 46.4h2.4v2.4h-2.4zM71.6 46.4h2.4v2.4h-2.4zM78.79999999999998 46.4h2.4v2.4h-2.4zM69.19999999999999 48.8h2.4v2.4h-2.4zM73.99999999999999 48.8h2.4v2.4h-2.4zM78.79999999999998 48.8h2.4v2.4h-2.4zM69.19999999999999 51.2h2.4v2.4h-2.4zM76.39999999999999 51.2h2.4v2.4h-2.4zM78.79999999999998 51.2h2.4v2.4h-2.4zM69.19999999999999 53.6h2.4v2.4h-2.4zM78.79999999999998 53.6h2.4v2.4h-2.4zM69.19999999999999 56h2.4v2.4h-2.4zM78.79999999999998 56h2.4v2.4h-2.4zM69.19999999999999 58.4h2.4v2.4h-2.4zM78.79999999999998 58.4h2.4v2.4h-2.4zM93.19999999999999 44h2.4v2.4h-2.4zM95.6 44h2.4v2.4h-2.4zM97.99999999999999 44h2.4v2.4h-2.4zM100.39999999999999 44h2.4v2.4h-2.4zM102.79999999999998 44h2.4v2.4h-2.4zM97.99999999999999 46.4h2.4v2.4h-2.4zM97.99999999999999 48.8h2.4v2.4h-2.4zM97.99999999999999 51.2h2.4v2.4h-2.4zM97.99999999999999 53.6h2.4v2.4h-2.4zM97.99999999999999 56h2.4v2.4h-2.4zM97.99999999999999 58.4h2.4v2.4h-2.4zM107.6 44h2.4v2.4h-2.4zM117.19999999999999 44h2.4v2.4h-2.4zM107.6 46.4h2.4v2.4h-2.4zM117.19999999999999 46.4h2.4v2.4h-2.4zM107.6 48.8h2.4v2.4h-2.4zM117.19999999999999 48.8h2.4v2.4h-2.4zM107.6 51.2h2.4v2.4h-2.4zM110 51.2h2.4v2.4h-2.4zM112.39999999999999 51.2h2.4v2.4h-2.4zM114.8 51.2h2.4v2.4h-2.4zM117.19999999999999 51.2h2.4v2.4h-2.4zM107.6 53.6h2.4v2.4h-2.4zM117.19999999999999 53.6h2.4v2.4h-2.4zM107.6 56h2.4v2.4h-2.4zM117.19999999999999 56h2.4v2.4h-2.4zM107.6 58.4h2.4v2.4h-2.4zM117.19999999999999 58.4h2.4v2.4h-2.4zM122 44h2.4v2.4h-2.4zM124.4 44h2.4v2.4h-2.4zM126.8 44h2.4v2.4h-2.4zM129.2 44h2.4v2.4h-2.4zM131.6 44h2.4v2.4h-2.4zM122 46.4h2.4v2.4h-2.4zM122 48.8h2.4v2.4h-2.4zM122 51.2h2.4v2.4h-2.4zM124.4 51.2h2.4v2.4h-2.4zM126.8 51.2h2.4v2.4h-2.4zM129.2 51.2h2.4v2.4h-2.4zM122 53.6h2.4v2.4h-2.4zM122 56h2.4v2.4h-2.4zM122 58.4h2.4v2.4h-2.4zM124.4 58.4h2.4v2.4h-2.4zM126.8 58.4h2.4v2.4h-2.4zM129.2 58.4h2.4v2.4h-2.4zM131.6 58.4h2.4v2.4h-2.4zM146 44h2.4v2.4h-2.4zM148.4 44h2.4v2.4h-2.4zM150.8 44h2.4v2.4h-2.4zM153.2 44h2.4v2.4h-2.4zM146 46.4h2.4v2.4h-2.4zM155.6 46.4h2.4v2.4h-2.4zM146 48.8h2.4v2.4h-2.4zM155.6 48.8h2.4v2.4h-2.4zM146 51.2h2.4v2.4h-2.4zM148.4 51.2h2.4v2.4h-2.4zM150.8 51.2h2.4v2.4h-2.4zM153.2 51.2h2.4v2.4h-2.4zM146 53.6h2.4v2.4h-2.4zM146 56h2.4v2.4h-2.4zM146 58.4h2.4v2.4h-2.4zM162.8 44h2.4v2.4h-2.4zM165.20000000000002 44h2.4v2.4h-2.4zM167.6 44h2.4v2.4h-2.4zM160.4 46.4h2.4v2.4h-2.4zM170 46.4h2.4v2.4h-2.4zM160.4 48.8h2.4v2.4h-2.4zM170 48.8h2.4v2.4h-2.4zM160.4 51.2h2.4v2.4h-2.4zM162.8 51.2h2.4v2.4h-2.4zM165.20000000000002 51.2h2.4v2.4h-2.4zM167.6 51.2h2.4v2.4h-2.4zM170 51.2h2.4v2.4h-2.4zM160.4 53.6h2.4v2.4h-2.4zM170 53.6h2.4v2.4h-2.4zM160.4 56h2.4v2.4h-2.4zM170 56h2.4v2.4h-2.4zM160.4 58.4h2.4v2.4h-2.4zM170 58.4h2.4v2.4h-2.4zM174.8 44h2.4v2.4h-2.4zM177.20000000000002 44h2.4v2.4h-2.4zM179.60000000000002 44h2.4v2.4h-2.4zM182 44h2.4v2.4h-2.4zM174.8 46.4h2.4v2.4h-2.4zM184.4 46.4h2.4v2.4h-2.4zM174.8 48.8h2.4v2.4h-2.4zM184.4 48.8h2.4v2.4h-2.4zM174.8 51.2h2.4v2.4h-2.4zM177.20000000000002 51.2h2.4v2.4h-2.4zM179.60000000000002 51.2h2.4v2.4h-2.4zM182 51.2h2.4v2.4h-2.4zM174.8 53.6h2.4v2.4h-2.4zM179.60000000000002 53.6h2.4v2.4h-2.4zM174.8 56h2.4v2.4h-2.4zM182 56h2.4v2.4h-2.4zM174.8 58.4h2.4v2.4h-2.4zM184.4 58.4h2.4v2.4h-2.4zM189.20000000000002 44h2.4v2.4h-2.4zM191.60000000000002 44h2.4v2.4h-2.4zM194.00000000000003 44h2.4v2.4h-2.4zM196.4 44h2.4v2.4h-2.4zM198.8 44h2.4v2.4h-2.4zM194.00000000000003 46.4h2.4v2.4h-2.4zM194.00000000000003 48.8h2.4v2.4h-2.4zM194.00000000000003 51.2h2.4v2.4h-2.4zM194.00000000000003 53.6h2.4v2.4h-2.4zM194.00000000000003 56h2.4v2.4h-2.4zM194.00000000000003 58.4h2.4v2.4h-2.4zM203.60000000000002 44h2.4v2.4h-2.4zM213.20000000000002 44h2.4v2.4h-2.4zM203.60000000000002 46.4h2.4v2.4h-2.4zM213.20000000000002 46.4h2.4v2.4h-2.4zM206.00000000000003 48.8h2.4v2.4h-2.4zM210.8 48.8h2.4v2.4h-2.4zM208.40000000000003 51.2h2.4v2.4h-2.4zM208.40000000000003 53.6h2.4v2.4h-2.4zM208.40000000000003 56h2.4v2.4h-2.4zM208.40000000000003 58.4h2.4v2.4h-2.4z" fill="#9AA6BE" ></path>
</svg>
